<?xml version="1.0" encoding="UTF-8"?>
<!DOCTYPE svg PUBLIC "-//W3C//DTD SVG 1.1//EN" "http://www.w3.org/Graphics/SVG/1.1/DTD/svg11.dtd">
<!-- Creator: CorelDRAW 2019 (64-Bit) -->
<svg xmlns="http://www.w3.org/2000/svg" xml:space="preserve" width="183.031mm" height="153.333mm" version="1.1" style="shape-rendering:geometricPrecision; text-rendering:geometricPrecision; image-rendering:optimizeQuality; fill-rule:evenodd; clip-rule:evenodd"
viewBox="0 0 183.034 153.3352"
 xmlns:xlink="http://www.w3.org/1999/xlink"
 xmlns:xodm="http://www.corel.com/coreldraw/odm/2003">
 <defs>
  <style type="text/css">
   <![CDATA[
    .fil0 {fill:#AF1B17}
    .fil1 {fill:white}
   ]]>
  </style>
 </defs>
 <g id="Layer_x0020_1">
  <metadata id="CorelCorpID_0Corel-Layer"/>
  <g id="_749627136">
   <path class="fil0" d="M57.7925 1.136c0.9344,0 1.8461,0.1003 2.719,0.2836l27.0821 0c0.8603,0 3.4388,0.0029 6.3489,0.7034l0 -0.8394 6.8372 0.136c0.0559,0 19.4803,0.2837 20.8715,0.2837 2.0738,0 10.9078,0.0043 15.1712,5.7404 4.7418,-3.1918 10.3304,-4.8937 16.0479,-4.888 7.9539,0 15.1656,3.2363 20.3874,8.458 5.2218,5.2219 8.4581,12.435 8.4581,20.3873l0 17.5977c0,3.5522 -1.467,6.798 -3.8093,9.1411 -2.3437,2.343 -5.59,3.8106 -9.1429,3.8106 -3.0929,0 -5.9094,-0.9431 -8.1787,-2.6279l-1.5056 0.2523c-2.017,0.3345 -4.0356,0.6724 -6.209,0.6724 -5.5497,0 -10.7415,-1.5797 -15.1453,-4.3066l0 4.3066 -31.1841 0 -0.567 -0.0796c-0.2771,-0.0381 0.1092,0.021 -0.3643,-0.0369l-0.0248 0c-0.7866,-0.0918 -1.5705,-0.2052 -2.351,-0.3401l-0.0129 0.4566 -6.5461 0c-0.0601,0 -18.8906,-0.0053 -23.8417,-0.289l0 0.0045c-1.4676,0 -4.6438,-0.1179 -7.7531,-1.5254 -0.4099,-0.1852 -0.811,-0.3915 -1.2067,-0.6126 -1.7435,0.9997 -3.7826,1.5701 -6.082,1.5701 -3.3299,0 -6.2267,-1.317 -8.4062,-3.3867 -1.2294,-1.1764 -2.2118,-2.5859 -2.8904,-4.1464 -4.9971,3.7881 -11.0975,5.836 -17.3683,5.8298 -0.8889,0 -1.7522,-0.06 -2.6006,-0.1492l-0.0579 7.6318 0 0.3066 -0.0521 0.5788c-0.3131,3.4476 -1.9616,6.2629 -4.3658,8.2286 -2.3354,1.9104 -5.3858,2.985 -8.5339,2.985 -3.6371,0 -6.8892,-1.4127 -9.2519,-3.6751l0.0119 -0.0131c-2.4861,-2.3823 -3.9949,-5.6731 -3.9949,-9.2633l0 -35.4766c0,-7.9509 3.2349,-15.1654 8.4564,-20.3873 5.2224,-5.2219 12.4351,-8.458 20.3874,-8.458 6.9245,0 13.2911,2.4554 18.268,6.5383 0.4726,-0.6604 1.0074,-1.2764 1.595,-1.8379 2.3096,-2.1948 5.4757,-3.5644 8.8044,-3.5644zm125.0566 109.9404l0 0c0.2264,-1.2487 0.1203,-2.2322 0.013,-3.2147 -0.0043,-0.0448 -0.0101,-0.0936 -0.0101,-0.1187 0,-7.9515 -3.2377,-15.164 -8.4595,-20.3853l-0.0243 0c-5.2218,-5.2217 -12.4293,-8.4586 -20.363,-8.4586 -6.0154,-0.013 -11.8778,1.8963 -16.7313,5.4495 -3.881,-6.8702 -13.7035,-6.868 -15.906,-6.868l-27.4253 0 0 0.662c-3.0366,-0.8712 -5.7894,-0.9453 -6.6323,-0.9453l-27.058 0c-0.8799,-0.1901 -1.7981,-0.2859 -2.7421,-0.2859 -3.3954,0 -6.4839,1.3923 -8.7256,3.6333l-0.0264 0c-0.6232,0.6247 -1.1807,1.3112 -1.6607,2.0596 -5.1402,-4.234 -11.593,-6.5469 -18.2526,-6.543 -7.9384,0 -15.0675,3.2382 -20.2324,8.4724 -5.2953,5.3697 -8.2829,12.5958 -8.3259,20.137 -0.1363,0.7457 -0.2864,1.5776 -0.2864,2.5066l0 32.9229c0,3.5478 1.4839,6.9231 3.9161,9.3545 2.3608,2.3594 5.6261,3.8805 9.3191,3.8805 3.0787,-0.0109 6.0609,-1.0783 8.4477,-3.0232 2.4347,-1.9907 4.1257,-4.8572 4.4516,-8.1371l0.0523 -0.5276 0 -0.4099 0.0587 -7.8241c0.8799,0.0555 1.7383,0.0577 2.5993,0.0577 6.2634,0.0123 12.3615,-2.0065 17.3807,-5.7536 0.6672,1.5452 1.6124,2.9812 2.7901,4.1564l0.0251 0c2.1641,2.1612 5.0719,3.5839 8.4682,3.5839 2.4327,0 4.5207,-0.5562 6.2606,-1.5373 2.6689,1.3901 5.6031,1.7566 7.4739,1.9885l0.0263 0c0.4732,0.0579 0.0872,-0.002 0.363,0.0361l0.5683 0.0788 30.7321 0 0.0089 -0.3447c1.3041,0.2287 2.6255,0.3437 3.9502,0.3447l30.5479 0 0 -4.766c4.8207,3.4796 10.6169,5.3469 16.5636,5.3352 2.2463,0 3.8553,-0.2751 5.6445,-0.5771l0.5659 -0.096 1.0228 -0.1741 0.4413 -0.2195c2.3637,1.7943 5.2505,2.7663 8.2188,2.7684 3.5528,0 6.799,-1.4653 9.1428,-3.8097 2.3108,-2.3029 3.6661,-5.3932 3.7964,-8.6524 0.1921,-0.9378 0.321,-1.8451 0.0129,-3.0584l0 -11.6977z"/>
   <path class="fil1" d="M176.1419 123.9234l0 -13.6224c0.2836,-0.8517 0,-1.7032 0,-2.5556 0,-12.2017 -9.9324,-22.1363 -22.1382,-22.1363 -12.2029,0 -21.8528,9.9337 -21.8528,22.1363 0,12.2039 9.6499,22.1385 21.8528,22.1385 1.9885,0 3.4068,-0.2834 5.1102,-0.5666 1.136,-0.5683 2.8379,-1.1376 4.54,-1.9868 0.8523,2.5534 3.4052,4.2565 6.2446,4.2565 3.4054,0 6.2448,-2.8388 6.2448,-6.244 -0.0014,-0.5683 0.2822,-0.8515 -0.0014,-1.4194zm-112.3899 -77.7639l0 0 0 -32.6387c0,-3.1217 -2.5543,-5.676 -5.9594,-5.676 -3.1219,0 -5.9606,2.5543 -5.9606,5.676l0.2844 32.9223 0 0.8516c0.2834,2.838 2.5543,5.3924 5.6762,5.3924 3.4061,0 5.3924,-2.5543 5.6763,-5.6761 0.2831,-0.2847 0.2831,-0.5679 0.2831,-0.8515zm-56.7621 16.7437l0 0 0 -34.0579c0,-12.2043 9.9328,-22.1366 22.1376,-22.1366 12.2047,0 22.1375,9.9323 22.1375,22.1366 0,12.2041 -9.9336,22.1377 -22.1375,22.1377 -1.7033,0 -3.406,-0.2844 -5.1093,-0.5678l0 -13.3381c1.7033,0.851 3.406,1.4188 5.393,1.4188 5.1091,0 9.3655,-4.2583 9.3655,-9.6506 0.2836,-5.1087 -4.2564,-9.3664 -9.3655,-9.3664 -4.8252,0 -8.798,3.1232 -9.366,7.663l0 0.5687 -0.2837 37.4635 0 0.2837c-0.2832,3.1215 -3.1228,5.1092 -6.244,5.1092 -3.6896,0 -6.5276,-2.8381 -6.5276,-6.244l0 -1.4199zm168.0173 -15.3252l0 0 0 -16.1784c0,-12.2029 -9.9336,-22.1366 -22.1393,-22.1366 -12.2016,0 -22.1367,9.9323 -22.1367,22.1366 0,12.2041 9.9338,22.1382 22.1367,22.1382 1.7032,0 3.4068,-0.2845 5.1087,-0.5683l0 -13.3388c-1.4169,0.8516 -3.4041,1.4195 -5.1087,1.4195 -5.3909,0 -9.6486,-4.2568 -9.6486,-9.6506 0,-5.1087 4.2562,-9.365 9.6486,-9.365 4.8264,0 8.5167,3.1217 9.3677,7.663l0 20.435c0.5673,3.1214 3.1217,5.1091 6.527,5.1091 3.4053,0 6.2446,-2.8392 6.2446,-6.2444l0 -1.4194zm-74.3579 -39.4509l0 0c0,0 19.5827,0.2851 21.0013,0.2851 1.703,0 10.7841,0 10.7841,6.812 0,5.3923 -1.7019,7.3779 -2.5544,8.7961 -0.8503,1.4197 -15.3253,17.8806 -15.3253,17.8806l16.4615 0.2833 0 11.3536 -24.1232 0c-1.9865,-0.2845 -8.2306,-0.5683 -8.2306,-6.8123 0,-5.1083 2.2699,-7.0948 3.9721,-8.7974 1.4203,-1.7034 15.3262,-17.0279 15.3262,-17.0279l-17.3108 0.2836 0 -13.0567 -0.0008 0zm-34.0591 0l0 0 21.0026 0c1.4194,0 10.5006,0 10.5006,7.0971 0,5.1086 -1.4184,7.0942 -2.5534,8.7961 -0.8516,1.4197 -15.0425,17.8806 -15.0425,17.8806l16.4612 0 -0.2836 11.6369c0,0 -21.8539,0 -23.8417,-0.2845 -1.9864,0 -8.5141,-0.2838 -8.5141,-6.5278 0,-5.1083 2.5548,-7.0948 3.973,-8.7974 1.7031,-1.7034 15.6098,-17.0279 15.6098,-17.0279l-17.3117 0 0 -12.7731zm-59.8838 130.5555l0 0 0 -31.5044c0,-0.8514 0.2835,-1.7031 0.2835,-2.2697 0,-12.2039 9.6489,-22.1389 21.8529,-22.1389 12.2039,0 22.1376,9.9338 22.1376,22.1389 0,12.2048 -9.9328,21.853 -22.1376,21.853 -1.7032,0 -3.4061,0 -4.8246,-0.567l0 -13.3408c1.4196,0.8511 3.1214,1.7026 5.1093,1.7026 5.1091,0 9.6502,-4.5398 9.6502,-9.6491 0,-5.3916 -4.5411,-9.6513 -9.6502,-9.6513 -4.8247,0 -8.7974,3.1214 -9.366,7.9472l0 0.2832 -0.2832 37.7474 0 0.2859c-0.2846,2.8367 -3.1228,5.107 -6.2445,5.107 -3.6893,0 -6.5274,-3.1219 -6.5274,-6.5264l0 -1.4176zm93.9428 -54.4923l0 0 20.718 0c1.7019,0 10.7838,0 10.7838,6.8102 0,5.3916 -1.7019,7.3789 -2.5533,8.7983 -0.8515,1.7023 -15.3266,17.8792 -15.3266,17.8792l16.4616 0.2831 0 11.3547 -23.8395 0c-2.272,0 -8.5164,-0.5679 -8.5164,-6.8123 0,-4.8255 2.2724,-6.812 3.9742,-8.5142 1.4209,-1.7029 15.6091,-17.0294 15.6091,-17.0294l-17.3108 0 0 -12.7696zm-34.3425 -0.2845l0 0 21.0015 0c1.4195,0 10.5015,0.2854 10.5015,7.0955 0,5.1093 -1.4203,7.3793 -2.5557,8.7989 -0.851,1.4185 -15.0414,17.8787 -15.0414,17.8787l16.4624 0.2837 -0.2855 11.3545 -23.8394 0c-1.9867,-0.286 -8.2309,-0.5683 -8.2309,-6.8123 0,-5.1092 2.271,-7.0957 3.6897,-8.7987 1.7032,-1.7019 15.6099,-17.0274 15.6099,-17.0274l-17.3119 0.2834 0 -13.0563zm-2.8378 38.3152l0 0 0 -32.9227c0,-3.1214 -2.5548,-5.6771 -5.9599,-5.6771 -3.1214,0 -5.677,2.5557 -5.677,5.6771l0 33.7722c0.2844,2.8393 2.5543,5.6775 5.677,5.6775 3.4062,0 5.3928,-2.5535 5.9599,-5.9607l0 -0.5662zm86.5638 -6.2431l0 0 -6.812 -6.8119 1.4182 -1.4207 -0.8523 -3.1215 2.8392 0.2855 1.4213 -1.4209 3.6875 3.4075 -1.4182 -7.9473 2.2705 0.8517 1.9855 -2.8389 1.9871 2.5557 2.2707 -0.5685 -1.1361 7.6618 4.2577 -2.8372 0.2852 1.9864 3.4052 -0.2855 -1.136 3.1216 1.7033 1.4208 -7.0956 5.6751 -3.974 -0.2837 0 3.9743 -1.4198 0 0.2836 -3.9743 -3.9711 0.5701z"/>
  </g>
 </g>
</svg>
